<svg viewBox="0 0 300 300" xmlns="http://www.w3.org/2000/svg">
  <ellipse cx="150" cy="255" rx="66" ry="10" fill="#00000014"/>
  <path d="M97 190 L112 260 L188 260 L203 190 Z" fill="#D98A9C"/>
  <path d="M97 190 L203 190 L198 205 L102 205 Z" fill="#C6708A"/>
  <g>
    <path d="M150 198 C130 175 118 145 128 110 C146 122 156 155 150 198 Z" fill="#2C4A30" transform="rotate(-8 150 198)"/>
    <path d="M150 198 C170 175 182 145 172 110 C154 122 144 155 150 198 Z" fill="#3F6B44" transform="rotate(8 150 198)"/>
    <path d="M150 198 C138 168 132 132 144 102" stroke="#5C8A5A" stroke-width="3" fill="none" transform="rotate(-8 150 198)"/>
    <path d="M150 198 C162 168 168 132 156 102" stroke="#8FAE7E" stroke-width="3" fill="none" transform="rotate(8 150 198)"/>
    <path d="M113 200 C98 178 90 152 98 122 C114 134 122 165 113 200 Z" fill="#4E7A4F" transform="rotate(-18 113 200)"/>
    <path d="M187 200 C202 178 210 152 202 122 C186 134 178 165 187 200 Z" fill="#4E7A4F" transform="rotate(18 187 200)"/>
  </g>
</svg>
